<mxfile host="app.diagrams.net" agent="Mozilla/5.0 (Windows NT 10.0; Win64; x64) AppleWebKit/537.36 (KHTML, like Gecko) Chrome/131.0.0.0 Safari/537.36" version="26.0.1">
  <diagram name="Pagina-1" id="Egg3Sr3a4JfllCXwYRmJ">
    <mxGraphModel dx="2182" dy="1976" grid="1" gridSize="10" guides="1" tooltips="1" connect="1" arrows="1" fold="1" page="1" pageScale="1" pageWidth="827" pageHeight="1169" math="0" shadow="0">
      <root>
        <mxCell id="0" />
        <mxCell id="1" parent="0" />
        <mxCell id="5_992U5cpK-N7UOIysrV-1" value="&lt;font style=&quot;font-size: 15px;&quot;&gt;&lt;span&gt;ISR_4331_1&lt;/span&gt;&lt;/font&gt;" style="shape=mxgraph.cisco.routers.router;sketch=0;html=1;pointerEvents=1;dashed=0;fillColor=#036897;strokeColor=#ffffff;strokeWidth=2;verticalLabelPosition=top;verticalAlign=middle;align=center;outlineConnect=0;labelPosition=center;fontStyle=1" parent="1" vertex="1">
          <mxGeometry x="145" y="196" width="78" height="53" as="geometry" />
        </mxCell>
        <mxCell id="5_992U5cpK-N7UOIysrV-6" style="edgeStyle=orthogonalEdgeStyle;rounded=0;orthogonalLoop=1;jettySize=auto;html=1;" parent="1" source="5_992U5cpK-N7UOIysrV-2" target="5_992U5cpK-N7UOIysrV-1" edge="1">
          <mxGeometry relative="1" as="geometry" />
        </mxCell>
        <mxCell id="5_992U5cpK-N7UOIysrV-2" value="&lt;font style=&quot;font-size: 15px;&quot;&gt;Switch_2960_L_1&lt;/font&gt;&lt;div&gt;&lt;font style=&quot;font-size: 15px; font-weight: normal;&quot;&gt;10.0.0.245&lt;/font&gt;&lt;/div&gt;&lt;div&gt;&lt;font style=&quot;&quot;&gt;&lt;span style=&quot;font-size: 15px; font-weight: 400;&quot;&gt;2001:DB8::1:FE80::290:CFF:FE05:6260&lt;/span&gt;&lt;/font&gt;&lt;/div&gt;" style="shape=mxgraph.cisco.switches.workgroup_switch;sketch=0;html=1;pointerEvents=1;dashed=0;fillColor=#036897;strokeColor=#ffffff;strokeWidth=2;verticalLabelPosition=top;verticalAlign=bottom;align=center;outlineConnect=0;labelPosition=center;fontStyle=1" parent="1" vertex="1">
          <mxGeometry x="-101" y="198" width="101" height="50" as="geometry" />
        </mxCell>
        <mxCell id="5_992U5cpK-N7UOIysrV-3" value="Switch_2960_R_1&lt;div&gt;&lt;span style=&quot;font-weight: normal;&quot;&gt;192.168.1.245&lt;/span&gt;&lt;/div&gt;&lt;div&gt;&lt;span style=&quot;font-size: 15px; font-weight: 400;&quot;&gt;2001:DB8::1:FE80::230:A3FF:FE40:1BA&lt;/span&gt;&lt;/div&gt;" style="shape=mxgraph.cisco.switches.workgroup_switch;sketch=0;html=1;pointerEvents=1;dashed=0;fillColor=#036897;strokeColor=#ffffff;strokeWidth=2;verticalLabelPosition=top;verticalAlign=bottom;align=center;outlineConnect=0;fontSize=15;fontStyle=1;labelPosition=center;" parent="1" vertex="1">
          <mxGeometry x="354" y="198" width="101" height="50" as="geometry" />
        </mxCell>
        <mxCell id="5_992U5cpK-N7UOIysrV-5" value="&lt;font style=&quot;font-size: 14px;&quot;&gt;PC7&lt;/font&gt;&lt;div&gt;&lt;font style=&quot;font-size: 14px;&quot;&gt;10.0.0.16&lt;/font&gt;&lt;/div&gt;&lt;div&gt;&lt;font style=&quot;font-size: 14px;&quot;&gt;2001:DB8:1:0:20C:CFFF:FE85:4DD9&lt;/font&gt;&lt;/div&gt;" style="shape=mxgraph.cisco.computers_and_peripherals.pc;sketch=0;html=1;pointerEvents=1;dashed=0;fillColor=#036897;strokeColor=#ffffff;strokeWidth=2;verticalLabelPosition=middle;verticalAlign=middle;align=right;outlineConnect=0;labelPosition=left;" parent="1" vertex="1">
          <mxGeometry x="-557" y="430" width="72" height="70" as="geometry" />
        </mxCell>
        <mxCell id="5_992U5cpK-N7UOIysrV-7" style="edgeStyle=orthogonalEdgeStyle;rounded=0;orthogonalLoop=1;jettySize=auto;html=1;entryX=1;entryY=0.5;entryDx=0;entryDy=0;entryPerimeter=0;" parent="1" source="5_992U5cpK-N7UOIysrV-3" target="5_992U5cpK-N7UOIysrV-1" edge="1">
          <mxGeometry relative="1" as="geometry" />
        </mxCell>
        <mxCell id="9x-HB1ZpZMzdCT9uutG5-1" value="&lt;font style=&quot;font-size: 14px;&quot;&gt;PC3&lt;/font&gt;&lt;div&gt;&lt;font style=&quot;font-size: 14px;&quot;&gt;10.0.0.17&lt;/font&gt;&lt;/div&gt;&lt;div&gt;&lt;font style=&quot;font-size: 14px;&quot;&gt;2001:DB8:1:0:2E0:F7FF:FE20:1B44&lt;/font&gt;&lt;/div&gt;" style="shape=mxgraph.cisco.computers_and_peripherals.pc;sketch=0;html=1;pointerEvents=1;dashed=0;fillColor=#036897;strokeColor=#ffffff;strokeWidth=2;verticalLabelPosition=middle;verticalAlign=middle;align=right;outlineConnect=0;labelPosition=left;" vertex="1" parent="1">
          <mxGeometry x="-560" y="-17" width="78" height="70" as="geometry" />
        </mxCell>
        <mxCell id="9x-HB1ZpZMzdCT9uutG5-2" value="&lt;font style=&quot;font-size: 15px;&quot;&gt;&lt;b&gt;Switch_2960_L_2&lt;/b&gt;&lt;/font&gt;&lt;div&gt;&lt;font style=&quot;font-size: 15px;&quot;&gt;10.0.0.246&lt;b&gt;&lt;/b&gt;&lt;/font&gt;&lt;/div&gt;&lt;div&gt;&lt;font style=&quot;&quot;&gt;&lt;span style=&quot;font-size: 15px;&quot;&gt;2001:DB8::1:FE80::260:70FF:FE45:861B&lt;/span&gt;&lt;/font&gt;&lt;/div&gt;" style="shape=mxgraph.cisco.switches.workgroup_switch;sketch=0;html=1;pointerEvents=1;dashed=0;fillColor=#036897;strokeColor=#ffffff;strokeWidth=2;verticalLabelPosition=bottom;verticalAlign=top;align=center;outlineConnect=0;" vertex="1" parent="1">
          <mxGeometry x="-101" y="460" width="101" height="50" as="geometry" />
        </mxCell>
        <mxCell id="9x-HB1ZpZMzdCT9uutG5-9" value="&lt;font style=&quot;font-size: 14px;&quot;&gt;Laptop 4&lt;/font&gt;&lt;div&gt;&lt;font style=&quot;font-size: 14px;&quot;&gt;10.0.0.18&lt;/font&gt;&lt;/div&gt;&lt;div&gt;&lt;font style=&quot;font-size: 14px;&quot;&gt;2001:DB8::2D0:BCFF:FE7B:5B3D&lt;/font&gt;&lt;/div&gt;" style="shape=mxgraph.cisco.computers_and_peripherals.laptop;html=1;pointerEvents=1;dashed=0;fillColor=#036897;strokeColor=#ffffff;strokeWidth=2;verticalLabelPosition=middle;verticalAlign=middle;align=right;outlineConnect=0;labelPosition=left;" vertex="1" parent="1">
          <mxGeometry x="-560" y="-120" width="90" height="61" as="geometry" />
        </mxCell>
        <mxCell id="9x-HB1ZpZMzdCT9uutG5-10" value="&lt;font style=&quot;font-size: 14px;&quot;&gt;Laptop 3&lt;/font&gt;&lt;div&gt;&lt;font style=&quot;font-size: 14px;&quot;&gt;10.0.0.20&lt;/font&gt;&lt;/div&gt;&lt;div&gt;&lt;font style=&quot;font-size: 14px;&quot;&gt;2001:DB8::2E0:A3FF:FE0C:47B8&lt;/font&gt;&lt;/div&gt;" style="shape=mxgraph.cisco.computers_and_peripherals.laptop;html=1;pointerEvents=1;dashed=0;fillColor=#036897;strokeColor=#ffffff;strokeWidth=2;verticalLabelPosition=middle;verticalAlign=middle;align=right;outlineConnect=0;labelPosition=left;" vertex="1" parent="1">
          <mxGeometry x="-560" y="-230" width="90" height="61" as="geometry" />
        </mxCell>
        <mxCell id="9x-HB1ZpZMzdCT9uutG5-11" value="&lt;font style=&quot;font-size: 14px;&quot;&gt;Laptop 2&lt;/font&gt;&lt;div&gt;&lt;font style=&quot;font-size: 14px;&quot;&gt;10.0.0.15&lt;/font&gt;&lt;/div&gt;&lt;div&gt;&lt;font style=&quot;font-size: 14px;&quot;&gt;2001:DB8:1:0:20B:BEFF:FED6:81A6&lt;/font&gt;&lt;/div&gt;" style="shape=mxgraph.cisco.computers_and_peripherals.laptop;html=1;pointerEvents=1;dashed=0;fillColor=#036897;strokeColor=#ffffff;strokeWidth=2;verticalLabelPosition=middle;verticalAlign=middle;align=right;outlineConnect=0;labelPosition=left;" vertex="1" parent="1">
          <mxGeometry x="-560" y="-330" width="90" height="61" as="geometry" />
        </mxCell>
        <mxCell id="9x-HB1ZpZMzdCT9uutG5-14" value="&lt;font style=&quot;font-size: 14px;&quot;&gt;PC4&lt;/font&gt;&lt;div&gt;&lt;font style=&quot;font-size: 14px;&quot;&gt;10.0.0.19&lt;/font&gt;&lt;/div&gt;&lt;div&gt;&lt;font style=&quot;font-size: 14px;&quot;&gt;2001:DB8:1:0:230:A3FF:FE3E:E205&lt;/font&gt;&lt;/div&gt;" style="shape=mxgraph.cisco.computers_and_peripherals.pc;sketch=0;html=1;pointerEvents=1;dashed=0;fillColor=#036897;strokeColor=#ffffff;strokeWidth=2;verticalLabelPosition=middle;verticalAlign=middle;align=right;outlineConnect=0;labelPosition=left;" vertex="1" parent="1">
          <mxGeometry x="-560" y="83" width="78" height="70" as="geometry" />
        </mxCell>
        <mxCell id="9x-HB1ZpZMzdCT9uutG5-15" value="&lt;font style=&quot;font-size: 14px;&quot;&gt;PC5&lt;/font&gt;&lt;div&gt;&lt;font style=&quot;font-size: 14px;&quot;&gt;10.0.0.14&lt;/font&gt;&lt;/div&gt;&lt;div&gt;&lt;font style=&quot;font-size: 14px;&quot;&gt;2001:DB8::290:2BFF:FE4E:383D&lt;/font&gt;&lt;/div&gt;" style="shape=mxgraph.cisco.computers_and_peripherals.pc;sketch=0;html=1;pointerEvents=1;dashed=0;fillColor=#036897;strokeColor=#ffffff;strokeWidth=2;verticalLabelPosition=middle;verticalAlign=middle;align=right;outlineConnect=0;labelPosition=left;" vertex="1" parent="1">
          <mxGeometry x="-560" y="183" width="78" height="70" as="geometry" />
        </mxCell>
        <mxCell id="9x-HB1ZpZMzdCT9uutG5-16" value="&lt;font style=&quot;font-size: 14px;&quot;&gt;PC6&lt;/font&gt;&lt;div&gt;&lt;font style=&quot;font-size: 14px;&quot;&gt;10.0.0.12&lt;/font&gt;&lt;/div&gt;&lt;div&gt;&lt;font style=&quot;font-size: 14px;&quot;&gt;2001:DB8:1:0:201:42FF:FE03:37B9&lt;/font&gt;&lt;/div&gt;" style="shape=mxgraph.cisco.computers_and_peripherals.pc;sketch=0;html=1;pointerEvents=1;dashed=0;fillColor=#036897;strokeColor=#ffffff;strokeWidth=2;verticalLabelPosition=middle;verticalAlign=middle;align=right;outlineConnect=0;labelPosition=left;" vertex="1" parent="1">
          <mxGeometry x="-560" y="300" width="78" height="70" as="geometry" />
        </mxCell>
        <mxCell id="9x-HB1ZpZMzdCT9uutG5-19" value="&lt;font style=&quot;font-size: 14px;&quot;&gt;Laptop 6&lt;/font&gt;&lt;div&gt;&lt;font style=&quot;font-size: 14px;&quot;&gt;10.0.0.11&lt;/font&gt;&lt;/div&gt;&lt;div&gt;&lt;font style=&quot;font-size: 14px;&quot;&gt;2001:DB8:1:0:201:43FF:FECD:23A6&lt;/font&gt;&lt;/div&gt;" style="shape=mxgraph.cisco.computers_and_peripherals.laptop;html=1;pointerEvents=1;dashed=0;fillColor=#036897;strokeColor=#ffffff;strokeWidth=2;verticalLabelPosition=middle;verticalAlign=middle;align=right;outlineConnect=0;labelPosition=left;" vertex="1" parent="1">
          <mxGeometry x="-561" y="540" width="90" height="61" as="geometry" />
        </mxCell>
        <mxCell id="9x-HB1ZpZMzdCT9uutG5-23" style="edgeStyle=orthogonalEdgeStyle;rounded=0;orthogonalLoop=1;jettySize=auto;html=1;entryX=0;entryY=0.5;entryDx=0;entryDy=0;entryPerimeter=0;" edge="1" parent="1" target="5_992U5cpK-N7UOIysrV-2">
          <mxGeometry relative="1" as="geometry">
            <mxPoint x="-467" y="-399.4285714285711" as="sourcePoint" />
            <Array as="points">
              <mxPoint x="-330" y="-399" />
              <mxPoint x="-330" y="225" />
            </Array>
          </mxGeometry>
        </mxCell>
        <mxCell id="9x-HB1ZpZMzdCT9uutG5-24" style="edgeStyle=orthogonalEdgeStyle;rounded=0;orthogonalLoop=1;jettySize=auto;html=1;entryX=0;entryY=0.5;entryDx=0;entryDy=0;entryPerimeter=0;" edge="1" parent="1" source="9x-HB1ZpZMzdCT9uutG5-11" target="5_992U5cpK-N7UOIysrV-2">
          <mxGeometry relative="1" as="geometry">
            <Array as="points">
              <mxPoint x="-330" y="-299" />
              <mxPoint x="-330" y="225" />
            </Array>
          </mxGeometry>
        </mxCell>
        <mxCell id="9x-HB1ZpZMzdCT9uutG5-26" style="edgeStyle=orthogonalEdgeStyle;rounded=0;orthogonalLoop=1;jettySize=auto;html=1;entryX=0;entryY=0.5;entryDx=0;entryDy=0;entryPerimeter=0;" edge="1" parent="1" source="9x-HB1ZpZMzdCT9uutG5-9" target="5_992U5cpK-N7UOIysrV-2">
          <mxGeometry relative="1" as="geometry">
            <Array as="points">
              <mxPoint x="-330" y="-87" />
              <mxPoint x="-330" y="225" />
            </Array>
          </mxGeometry>
        </mxCell>
        <mxCell id="9x-HB1ZpZMzdCT9uutG5-27" style="edgeStyle=orthogonalEdgeStyle;rounded=0;orthogonalLoop=1;jettySize=auto;html=1;entryX=0;entryY=0.5;entryDx=0;entryDy=0;entryPerimeter=0;" edge="1" parent="1" source="9x-HB1ZpZMzdCT9uutG5-1" target="5_992U5cpK-N7UOIysrV-2">
          <mxGeometry relative="1" as="geometry">
            <Array as="points">
              <mxPoint x="-330" y="18" />
              <mxPoint x="-330" y="225" />
            </Array>
          </mxGeometry>
        </mxCell>
        <mxCell id="9x-HB1ZpZMzdCT9uutG5-28" style="edgeStyle=orthogonalEdgeStyle;rounded=0;orthogonalLoop=1;jettySize=auto;html=1;entryX=0;entryY=0.5;entryDx=0;entryDy=0;entryPerimeter=0;" edge="1" parent="1" source="9x-HB1ZpZMzdCT9uutG5-14" target="5_992U5cpK-N7UOIysrV-2">
          <mxGeometry relative="1" as="geometry">
            <Array as="points">
              <mxPoint x="-330" y="118" />
              <mxPoint x="-330" y="225" />
            </Array>
          </mxGeometry>
        </mxCell>
        <mxCell id="9x-HB1ZpZMzdCT9uutG5-30" style="edgeStyle=orthogonalEdgeStyle;rounded=0;orthogonalLoop=1;jettySize=auto;html=1;entryX=0.5;entryY=0;entryDx=0;entryDy=0;entryPerimeter=0;" edge="1" parent="1" source="5_992U5cpK-N7UOIysrV-2" target="9x-HB1ZpZMzdCT9uutG5-2">
          <mxGeometry relative="1" as="geometry" />
        </mxCell>
        <mxCell id="9x-HB1ZpZMzdCT9uutG5-32" style="edgeStyle=orthogonalEdgeStyle;rounded=0;orthogonalLoop=1;jettySize=auto;html=1;entryX=0;entryY=0.5;entryDx=0;entryDy=0;entryPerimeter=0;" edge="1" parent="1" source="5_992U5cpK-N7UOIysrV-5" target="9x-HB1ZpZMzdCT9uutG5-2">
          <mxGeometry relative="1" as="geometry">
            <Array as="points">
              <mxPoint x="-250" y="485" />
              <mxPoint x="-250" y="485" />
            </Array>
          </mxGeometry>
        </mxCell>
        <mxCell id="9x-HB1ZpZMzdCT9uutG5-33" style="edgeStyle=orthogonalEdgeStyle;rounded=0;orthogonalLoop=1;jettySize=auto;html=1;entryX=0;entryY=0.5;entryDx=0;entryDy=0;entryPerimeter=0;" edge="1" parent="1" source="9x-HB1ZpZMzdCT9uutG5-19" target="9x-HB1ZpZMzdCT9uutG5-2">
          <mxGeometry relative="1" as="geometry">
            <Array as="points">
              <mxPoint x="-330" y="571" />
              <mxPoint x="-330" y="485" />
            </Array>
          </mxGeometry>
        </mxCell>
        <mxCell id="9x-HB1ZpZMzdCT9uutG5-34" style="edgeStyle=orthogonalEdgeStyle;rounded=0;orthogonalLoop=1;jettySize=auto;html=1;entryX=0;entryY=0.5;entryDx=0;entryDy=0;entryPerimeter=0;" edge="1" parent="1" source="9x-HB1ZpZMzdCT9uutG5-16" target="9x-HB1ZpZMzdCT9uutG5-2">
          <mxGeometry relative="1" as="geometry">
            <Array as="points">
              <mxPoint x="-330" y="335" />
              <mxPoint x="-330" y="485" />
            </Array>
          </mxGeometry>
        </mxCell>
        <mxCell id="9x-HB1ZpZMzdCT9uutG5-36" style="edgeStyle=orthogonalEdgeStyle;rounded=0;orthogonalLoop=1;jettySize=auto;html=1;entryX=0;entryY=0.5;entryDx=0;entryDy=0;entryPerimeter=0;" edge="1" parent="1">
          <mxGeometry relative="1" as="geometry">
            <mxPoint x="-482.0000000000001" y="225" as="sourcePoint" />
            <mxPoint x="-101" y="228" as="targetPoint" />
            <Array as="points">
              <mxPoint x="-101" y="225" />
            </Array>
          </mxGeometry>
        </mxCell>
        <mxCell id="9x-HB1ZpZMzdCT9uutG5-37" value="" style="shape=mxgraph.cisco.wireless.wireless_transport;html=1;pointerEvents=1;dashed=0;fillColor=#036897;strokeColor=#ffffff;strokeWidth=2;verticalLabelPosition=bottom;verticalAlign=top;align=center;outlineConnect=0;" vertex="1" parent="1">
          <mxGeometry x="366" y="456" width="77" height="54" as="geometry" />
        </mxCell>
        <mxCell id="9x-HB1ZpZMzdCT9uutG5-38" value="&lt;font style=&quot;font-size: 14px;&quot;&gt;PC0&lt;/font&gt;&lt;div&gt;&lt;font style=&quot;font-size: 14px;&quot;&gt;192.168.1.13&lt;/font&gt;&lt;/div&gt;&lt;div&gt;&lt;font style=&quot;font-size: 14px;&quot;&gt;2001:DB8::230:A3FF:FE21:CE97&lt;/font&gt;&lt;/div&gt;" style="shape=mxgraph.cisco.computers_and_peripherals.pc;sketch=0;html=1;pointerEvents=1;dashed=0;fillColor=#036897;strokeColor=#ffffff;strokeWidth=2;verticalLabelPosition=middle;verticalAlign=middle;align=left;outlineConnect=0;labelPosition=right;" vertex="1" parent="1">
          <mxGeometry x="640" y="-239" width="78" height="70" as="geometry" />
        </mxCell>
        <mxCell id="9x-HB1ZpZMzdCT9uutG5-39" value="PC1&lt;div&gt;192.168.1.15&lt;/div&gt;&lt;div&gt;2001:DB8::20B:BEFF:FE65:7660&lt;/div&gt;" style="shape=mxgraph.cisco.computers_and_peripherals.pc;sketch=0;html=1;pointerEvents=1;dashed=0;fillColor=#036897;strokeColor=#ffffff;strokeWidth=2;verticalLabelPosition=middle;verticalAlign=middle;align=left;outlineConnect=0;labelPosition=right;fontSize=14;" vertex="1" parent="1">
          <mxGeometry x="640" y="-124.5" width="78" height="70" as="geometry" />
        </mxCell>
        <mxCell id="9x-HB1ZpZMzdCT9uutG5-40" value="&lt;font style=&quot;font-size: 14px;&quot;&gt;PC2&lt;/font&gt;&lt;div&gt;&lt;font style=&quot;font-size: 14px;&quot;&gt;192.168.1.14&lt;/font&gt;&lt;/div&gt;&lt;div&gt;&lt;font style=&quot;font-size: 14px;&quot;&gt;2001:DB8::2E0:F9FF:FE8C:4AC9&lt;/font&gt;&lt;/div&gt;" style="shape=mxgraph.cisco.computers_and_peripherals.pc;sketch=0;html=1;pointerEvents=1;dashed=0;fillColor=#036897;strokeColor=#ffffff;strokeWidth=2;verticalLabelPosition=middle;verticalAlign=middle;align=left;outlineConnect=0;labelPosition=right;" vertex="1" parent="1">
          <mxGeometry x="640" y="-17" width="78" height="70" as="geometry" />
        </mxCell>
        <mxCell id="9x-HB1ZpZMzdCT9uutG5-56" style="edgeStyle=orthogonalEdgeStyle;rounded=0;orthogonalLoop=1;jettySize=auto;html=1;entryX=0.98;entryY=0.5;entryDx=0;entryDy=0;entryPerimeter=0;" edge="1" parent="1" source="9x-HB1ZpZMzdCT9uutG5-41" target="5_992U5cpK-N7UOIysrV-3">
          <mxGeometry relative="1" as="geometry">
            <mxPoint x="570" y="220" as="targetPoint" />
            <Array as="points">
              <mxPoint x="560" y="114" />
              <mxPoint x="560" y="223" />
            </Array>
          </mxGeometry>
        </mxCell>
        <mxCell id="9x-HB1ZpZMzdCT9uutG5-41" value="Laptop 0&lt;div&gt;192.168.1.11&lt;/div&gt;&lt;div&gt;2001:DB8::20A:41FF:FE40:C836&lt;/div&gt;" style="shape=mxgraph.cisco.computers_and_peripherals.laptop;html=1;pointerEvents=1;dashed=0;fillColor=#036897;strokeColor=#ffffff;strokeWidth=2;verticalLabelPosition=middle;verticalAlign=middle;align=left;outlineConnect=0;fontSize=14;labelPosition=right;" vertex="1" parent="1">
          <mxGeometry x="627" y="83" width="90" height="61" as="geometry" />
        </mxCell>
        <mxCell id="9x-HB1ZpZMzdCT9uutG5-42" value="&lt;font&gt;Laptop 1&lt;/font&gt;&lt;div&gt;&lt;font&gt;10.0.0.13&lt;/font&gt;&lt;/div&gt;&lt;div&gt;&lt;font&gt;2001:DB8::20D:BDFF:FED8:A77E&lt;/font&gt;&lt;/div&gt;" style="shape=mxgraph.cisco.computers_and_peripherals.laptop;html=1;pointerEvents=1;dashed=0;fillColor=#036897;strokeColor=#ffffff;strokeWidth=2;verticalLabelPosition=middle;verticalAlign=middle;align=right;outlineConnect=0;labelPosition=left;fontSize=14;" vertex="1" parent="1">
          <mxGeometry x="-560" y="-432" width="90" height="61" as="geometry" />
        </mxCell>
        <mxCell id="9x-HB1ZpZMzdCT9uutG5-43" value="Laptop 5&lt;div&gt;192.168.1.12&lt;/div&gt;&lt;div&gt;2001:DB8::2E0:F9FF:FE30:B9CA&lt;/div&gt;" style="shape=mxgraph.cisco.computers_and_peripherals.laptop;html=1;pointerEvents=1;dashed=0;fillColor=#036897;strokeColor=#ffffff;strokeWidth=2;verticalLabelPosition=middle;verticalAlign=middle;align=left;outlineConnect=0;fontSize=14;labelPosition=right;" vertex="1" parent="1">
          <mxGeometry x="627" y="192.5" width="90" height="61" as="geometry" />
        </mxCell>
        <mxCell id="9x-HB1ZpZMzdCT9uutG5-44" value="Laptop 9&lt;div&gt;192.168.1.20&lt;/div&gt;&lt;div&gt;2001:DB8::204:9AFF:FE6E:492D&lt;/div&gt;" style="shape=mxgraph.cisco.computers_and_peripherals.laptop;html=1;pointerEvents=1;dashed=0;fillColor=#036897;strokeColor=#ffffff;strokeWidth=2;verticalLabelPosition=middle;verticalAlign=middle;align=left;outlineConnect=0;fontSize=14;labelPosition=right;" vertex="1" parent="1">
          <mxGeometry x="627" y="309" width="90" height="61" as="geometry" />
        </mxCell>
        <mxCell id="9x-HB1ZpZMzdCT9uutG5-45" value="Laptop 8&lt;div&gt;192.168.1.18&lt;/div&gt;&lt;div&gt;2001:DB8::206:2AFF:FE84:7488&lt;/div&gt;" style="shape=mxgraph.cisco.computers_and_peripherals.laptop;html=1;pointerEvents=1;dashed=0;fillColor=#036897;strokeColor=#ffffff;strokeWidth=2;verticalLabelPosition=middle;verticalAlign=middle;align=left;outlineConnect=0;fontSize=14;labelPosition=right;" vertex="1" parent="1">
          <mxGeometry x="627" y="439" width="90" height="61" as="geometry" />
        </mxCell>
        <mxCell id="9x-HB1ZpZMzdCT9uutG5-46" value="Laptop 7&lt;div&gt;192.168.1.17&lt;/div&gt;&lt;div&gt;2001:DB8::201:42FF:FEEE:33C&lt;/div&gt;" style="shape=mxgraph.cisco.computers_and_peripherals.laptop;html=1;pointerEvents=1;dashed=0;fillColor=#036897;strokeColor=#ffffff;strokeWidth=2;verticalLabelPosition=middle;verticalAlign=middle;align=left;outlineConnect=0;fontSize=14;labelPosition=right;" vertex="1" parent="1">
          <mxGeometry x="627" y="540" width="90" height="61" as="geometry" />
        </mxCell>
        <mxCell id="9x-HB1ZpZMzdCT9uutG5-47" value="Laptop 10&lt;div&gt;192.168.1.16&lt;/div&gt;&lt;div&gt;2001:DB8::2D0:58FF:FE9C:77B0&lt;/div&gt;" style="shape=mxgraph.cisco.computers_and_peripherals.laptop;html=1;pointerEvents=1;dashed=0;fillColor=#036897;strokeColor=#ffffff;strokeWidth=2;verticalLabelPosition=middle;verticalAlign=middle;align=left;outlineConnect=0;fontSize=14;labelPosition=right;" vertex="1" parent="1">
          <mxGeometry x="627" y="650" width="90" height="61" as="geometry" />
        </mxCell>
        <mxCell id="9x-HB1ZpZMzdCT9uutG5-48" value="Laptop 11&lt;div&gt;192.168.1.19&lt;/div&gt;&lt;div&gt;2001:DB8::210:11FF:FE6C:BAC4&lt;/div&gt;" style="shape=mxgraph.cisco.computers_and_peripherals.laptop;html=1;pointerEvents=1;dashed=0;fillColor=#036897;strokeColor=#ffffff;strokeWidth=2;verticalLabelPosition=middle;verticalAlign=middle;align=left;outlineConnect=0;fontSize=14;labelPosition=right;" vertex="1" parent="1">
          <mxGeometry x="627" y="750" width="90" height="61" as="geometry" />
        </mxCell>
        <mxCell id="9x-HB1ZpZMzdCT9uutG5-49" style="edgeStyle=orthogonalEdgeStyle;rounded=0;orthogonalLoop=1;jettySize=auto;html=1;entryX=0;entryY=0.5;entryDx=0;entryDy=0;entryPerimeter=0;" edge="1" parent="1">
          <mxGeometry relative="1" as="geometry">
            <mxPoint x="-470" y="-204.49397590361468" as="sourcePoint" />
            <mxPoint x="-101" y="218" as="targetPoint" />
            <Array as="points">
              <mxPoint x="-330" y="-204" />
              <mxPoint x="-330" y="225" />
              <mxPoint x="-101" y="225" />
            </Array>
          </mxGeometry>
        </mxCell>
        <mxCell id="9x-HB1ZpZMzdCT9uutG5-51" style="edgeStyle=orthogonalEdgeStyle;rounded=0;orthogonalLoop=1;jettySize=auto;html=1;entryX=0.98;entryY=0.5;entryDx=0;entryDy=0;entryPerimeter=0;" edge="1" parent="1" source="9x-HB1ZpZMzdCT9uutG5-43" target="5_992U5cpK-N7UOIysrV-3">
          <mxGeometry relative="1" as="geometry" />
        </mxCell>
        <mxCell id="9x-HB1ZpZMzdCT9uutG5-60" style="edgeStyle=orthogonalEdgeStyle;rounded=0;orthogonalLoop=1;jettySize=auto;html=1;entryX=0.98;entryY=0.5;entryDx=0;entryDy=0;entryPerimeter=0;" edge="1" parent="1" source="9x-HB1ZpZMzdCT9uutG5-40" target="5_992U5cpK-N7UOIysrV-3">
          <mxGeometry relative="1" as="geometry">
            <Array as="points">
              <mxPoint x="560" y="18" />
              <mxPoint x="560" y="223" />
            </Array>
          </mxGeometry>
        </mxCell>
        <mxCell id="9x-HB1ZpZMzdCT9uutG5-61" style="edgeStyle=orthogonalEdgeStyle;rounded=0;orthogonalLoop=1;jettySize=auto;html=1;entryX=0.98;entryY=0.5;entryDx=0;entryDy=0;entryPerimeter=0;" edge="1" parent="1" source="9x-HB1ZpZMzdCT9uutG5-39" target="5_992U5cpK-N7UOIysrV-3">
          <mxGeometry relative="1" as="geometry">
            <Array as="points">
              <mxPoint x="560" y="-89" />
              <mxPoint x="560" y="223" />
            </Array>
          </mxGeometry>
        </mxCell>
        <mxCell id="9x-HB1ZpZMzdCT9uutG5-62" style="edgeStyle=orthogonalEdgeStyle;rounded=0;orthogonalLoop=1;jettySize=auto;html=1;entryX=0.98;entryY=0.5;entryDx=0;entryDy=0;entryPerimeter=0;" edge="1" parent="1" source="9x-HB1ZpZMzdCT9uutG5-38" target="5_992U5cpK-N7UOIysrV-3">
          <mxGeometry relative="1" as="geometry">
            <Array as="points">
              <mxPoint x="560" y="-204" />
              <mxPoint x="560" y="223" />
            </Array>
          </mxGeometry>
        </mxCell>
        <mxCell id="9x-HB1ZpZMzdCT9uutG5-63" value="" style="shape=mxgraph.arrows2.wedgeArrowDashed2;html=1;bendable=0;startWidth=13.333333333333336;stepSize=15;rounded=0;exitX=0;exitY=1;exitDx=0;exitDy=0;exitPerimeter=0;entryX=1;entryY=0.5;entryDx=0;entryDy=0;entryPerimeter=0;strokeWidth=2;" edge="1" parent="1" source="9x-HB1ZpZMzdCT9uutG5-44" target="9x-HB1ZpZMzdCT9uutG5-37">
          <mxGeometry width="100" height="100" relative="1" as="geometry">
            <mxPoint x="500" y="410" as="sourcePoint" />
            <mxPoint x="455" y="470" as="targetPoint" />
          </mxGeometry>
        </mxCell>
        <mxCell id="9x-HB1ZpZMzdCT9uutG5-64" value="" style="shape=mxgraph.arrows2.wedgeArrowDashed2;html=1;bendable=0;startWidth=13.333333333333336;stepSize=15;rounded=0;entryX=1;entryY=0.5;entryDx=0;entryDy=0;entryPerimeter=0;strokeWidth=2;" edge="1" parent="1" source="9x-HB1ZpZMzdCT9uutG5-45" target="9x-HB1ZpZMzdCT9uutG5-37">
          <mxGeometry width="100" height="100" relative="1" as="geometry">
            <mxPoint x="664" y="456" as="sourcePoint" />
            <mxPoint x="480" y="569" as="targetPoint" />
          </mxGeometry>
        </mxCell>
        <mxCell id="9x-HB1ZpZMzdCT9uutG5-65" value="" style="shape=mxgraph.arrows2.wedgeArrowDashed2;html=1;bendable=0;startWidth=13.333333333333336;stepSize=15;rounded=0;entryX=1;entryY=0.5;entryDx=0;entryDy=0;entryPerimeter=0;strokeWidth=2;" edge="1" parent="1" source="9x-HB1ZpZMzdCT9uutG5-46" target="9x-HB1ZpZMzdCT9uutG5-37">
          <mxGeometry width="100" height="100" relative="1" as="geometry">
            <mxPoint x="614" y="550" as="sourcePoint" />
            <mxPoint x="430" y="561" as="targetPoint" />
          </mxGeometry>
        </mxCell>
        <mxCell id="9x-HB1ZpZMzdCT9uutG5-66" value="" style="shape=mxgraph.arrows2.wedgeArrowDashed2;html=1;bendable=0;startWidth=13.333333333333336;stepSize=15;rounded=0;entryX=1;entryY=0.5;entryDx=0;entryDy=0;entryPerimeter=0;strokeWidth=2;" edge="1" parent="1" source="9x-HB1ZpZMzdCT9uutG5-47" target="9x-HB1ZpZMzdCT9uutG5-37">
          <mxGeometry width="100" height="100" relative="1" as="geometry">
            <mxPoint x="637" y="597" as="sourcePoint" />
            <mxPoint x="453" y="527" as="targetPoint" />
          </mxGeometry>
        </mxCell>
        <mxCell id="9x-HB1ZpZMzdCT9uutG5-67" value="" style="shape=mxgraph.arrows2.wedgeArrowDashed2;html=1;bendable=0;startWidth=13.333333333333336;stepSize=15;rounded=0;entryX=1;entryY=0.5;entryDx=0;entryDy=0;entryPerimeter=0;strokeWidth=2;" edge="1" parent="1" source="9x-HB1ZpZMzdCT9uutG5-48" target="9x-HB1ZpZMzdCT9uutG5-37">
          <mxGeometry width="100" height="100" relative="1" as="geometry">
            <mxPoint x="647" y="689" as="sourcePoint" />
            <mxPoint x="453" y="522" as="targetPoint" />
          </mxGeometry>
        </mxCell>
        <mxCell id="9x-HB1ZpZMzdCT9uutG5-73" style="edgeStyle=orthogonalEdgeStyle;rounded=0;orthogonalLoop=1;jettySize=auto;html=1;entryX=0.5;entryY=0;entryDx=0;entryDy=0;entryPerimeter=0;" edge="1" parent="1" source="5_992U5cpK-N7UOIysrV-3" target="9x-HB1ZpZMzdCT9uutG5-37">
          <mxGeometry relative="1" as="geometry" />
        </mxCell>
        <mxCell id="9x-HB1ZpZMzdCT9uutG5-79" value="&lt;font style=&quot;font-size: 14px;&quot;&gt;&lt;b&gt;Gig 0/0/1&lt;/b&gt;&lt;/font&gt;&lt;div&gt;&lt;font style=&quot;font-size: 14px;&quot;&gt;&lt;b&gt;10.0.0.1/24&lt;/b&gt;&lt;/font&gt;&lt;/div&gt;" style="text;strokeColor=none;align=center;fillColor=none;html=1;verticalAlign=middle;whiteSpace=wrap;rounded=0;" vertex="1" parent="1">
          <mxGeometry x="67" y="230" width="90" height="30" as="geometry" />
        </mxCell>
        <mxCell id="9x-HB1ZpZMzdCT9uutG5-80" value="&lt;font style=&quot;font-size: 14px;&quot;&gt;&lt;b&gt;Gig 0/0/0&lt;/b&gt;&lt;/font&gt;&lt;div&gt;&lt;font style=&quot;font-size: 14px;&quot;&gt;&lt;b&gt;192.168.1.1/24&lt;/b&gt;&lt;/font&gt;&lt;/div&gt;" style="text;strokeColor=none;align=center;fillColor=none;html=1;verticalAlign=middle;whiteSpace=wrap;rounded=0;" vertex="1" parent="1">
          <mxGeometry x="217" y="230" width="90" height="30" as="geometry" />
        </mxCell>
        <mxCell id="9x-HB1ZpZMzdCT9uutG5-81" value="&lt;span style=&quot;font-size: 14px;&quot;&gt;Fa0/24&lt;/span&gt;" style="text;strokeColor=none;align=center;fillColor=none;html=1;verticalAlign=middle;whiteSpace=wrap;rounded=0;" vertex="1" parent="1">
          <mxGeometry x="-17" y="195" width="90" height="30" as="geometry" />
        </mxCell>
        <mxCell id="9x-HB1ZpZMzdCT9uutG5-82" value="&lt;span style=&quot;font-size: 14px;&quot;&gt;Fa0/24&lt;/span&gt;" style="text;strokeColor=none;align=center;fillColor=none;html=1;verticalAlign=middle;whiteSpace=wrap;rounded=0;" vertex="1" parent="1">
          <mxGeometry x="290" y="193.5" width="90" height="30" as="geometry" />
        </mxCell>
      </root>
    </mxGraphModel>
  </diagram>
</mxfile>
